<?xml version="1.0" encoding="UTF-8" standalone="no"?>
<!-- Created with Inkscape (http://www.inkscape.org/) -->

<svg
   xmlns:dc="http://purl.org/dc/elements/1.1/"
   xmlns:cc="http://creativecommons.org/ns#"
   xmlns:rdf="http://www.w3.org/1999/02/22-rdf-syntax-ns#"
   xmlns:svg="http://www.w3.org/2000/svg"
   xmlns="http://www.w3.org/2000/svg"
   xmlns:sodipodi="http://sodipodi.sourceforge.net/DTD/sodipodi-0.dtd"
   xmlns:inkscape="http://www.inkscape.org/namespaces/inkscape"
   width="210mm"
   height="297mm"
   viewBox="0 0 744.09448819 1052.3622047"
   id="svg2"
   version="1.1"
   inkscape:version="0.91 r13725"
   sodipodi:docname="colors.svg">
  <defs
     id="defs4">
    <clipPath
       clipPathUnits="userSpaceOnUse"
       id="clipPath32">
      <path
         inkscape:connector-curvature="0"
         d="m 11074.8,9137.91 c -308.1,455.46 -369.1,535.45 -334.4,802.37 91.3,706.12 148.8,1756.72 84.1,2392.12 -41.3,405 -245.3,354.2 -416,214.8 -578.29,-473.6 -842.16,-880.1 -1427.76,-1538.4 -186.42,-208.9 -259.23,-213.5 -701.8,-143 -302.94,48.9 -618.38,72 -943.94,72 -325.52,0 -640.96,-23.1 -943.94,-72 -442.57,-70.5 -515.34,-65.9 -701.8,143 -585.68,658.3 -849.36,1064.8 -1427.74,1538.4 -170.71,139.4 -374.66,190.2 -415.92,-214.8 -64.76,-635.4 -7.33,-1686 84.03,-2392.12 34.67,-266.92 -26.25,-346.91 -334.45,-802.37 -598.48,-883.72 -979.04,-2288.22 -909.79,-3173.36 9.4,-120.87 169.47,3.28 332.75,127.48 139.48,106.04 281.3,212.13 333.52,165.42 92.2,-82.42 -241.62,-1366.93 -59.57,-1565.17 52.7,-57.45 225.3,116.97 398.34,291.39 159.04,160.33 318.46,320.62 385.48,300.93 145.92,-42.97 -165.08,-1279.54 25.78,-1375.43 69.07,-34.67 226.08,114.23 377.56,263.13 147.63,145.08 290,290.16 340.7,265.41 98.05,-47.83 53.93,-952.27 206.19,-1015.74 110.87,-46.25 267.22,124.04 409.4,294.37 132,158.01 251.79,316.06 311.78,301.04 52.97,-13.2 85.86,-193.95 112.34,-321.24 C 6140.4,2346.97 6582.16,1961.8 7335,1961.8 c 752.88,0 1194.64,385.17 1475.34,1734.34 26.48,127.29 59.41,308.04 112.34,321.24 60.03,15.02 179.82,-143.03 311.82,-301.04 142.22,-170.33 298.57,-340.62 409.44,-294.37 152.22,63.47 107.98,967.91 206.08,1015.74 50.69,24.75 193.08,-120.33 340.68,-265.41 151.5,-148.9 308.5,-297.8 377.6,-263.13 190.9,95.89 -120.1,1332.46 25.8,1375.43 67,19.69 226.5,-140.6 385.5,-300.93 173,-174.42 345.6,-348.84 398.3,-291.39 182,198.24 -151.7,1482.75 -59.6,1565.17 52.2,46.71 194.1,-59.38 333.5,-165.42 163.3,-124.2 323.4,-248.35 332.8,-127.48 69.2,885.14 -311.3,2289.64 -909.8,3173.36"
         id="path34" />
    </clipPath>
  </defs>
  <sodipodi:namedview
     id="base"
     pagecolor="#ffffff"
     bordercolor="#666666"
     borderopacity="1.0"
     inkscape:pageopacity="0.0"
     inkscape:pageshadow="2"
     inkscape:zoom="0.7"
     inkscape:cx="75.46841"
     inkscape:cy="452.91583"
     inkscape:document-units="px"
     inkscape:current-layer="layer1"
     showgrid="false"
     inkscape:window-width="1855"
     inkscape:window-height="1056"
     inkscape:window-x="65"
     inkscape:window-y="24"
     inkscape:window-maximized="1" />
  <metadata
     id="metadata7">
    <rdf:RDF>
      <cc:Work
         rdf:about="">
        <dc:format>image/svg+xml</dc:format>
        <dc:type
           rdf:resource="http://purl.org/dc/dcmitype/StillImage" />
        <dc:title />
      </cc:Work>
    </rdf:RDF>
  </metadata>
  <g
     inkscape:label="Layer 1"
     inkscape:groupmode="layer"
     id="layer1">
    <rect
       style="fill:#36d995;fill-opacity:1;stroke:none;stroke-width:0.69999999;stroke-miterlimit:4;stroke-dasharray:none;stroke-opacity:1"
       id="rect4136"
       width="301.02545"
       height="276.7818"
       x="28.284271"
       y="15.945689"
       ry="2.6838474" />
    <rect
       ry="2.6838474"
       y="314.95084"
       x="30.304577"
       height="276.7818"
       width="301.02545"
       id="rect4138"
       style="fill:#2db77e;fill-opacity:1;stroke:none;stroke-width:0.69999999;stroke-miterlimit:4;stroke-dasharray:none;stroke-opacity:1" />
    <rect
       ry="2.6838474"
       y="15.945689"
       x="351.53308"
       height="276.7818"
       width="301.02545"
       id="rect4140"
       style="fill:#4a8ad3;fill-opacity:1;stroke:none;stroke-width:0.69999999;stroke-miterlimit:4;stroke-dasharray:none;stroke-opacity:1" />
    <rect
       style="fill:#2e6eb5;fill-opacity:1;stroke:none;stroke-width:0.69999999;stroke-miterlimit:4;stroke-dasharray:none;stroke-opacity:1"
       id="rect4142"
       width="301.02545"
       height="276.7818"
       x="349.51279"
       y="314.95084"
       ry="2.6838474" />
  </g>
</svg>
