<?xml version="1.0" encoding="UTF-8" standalone="no"?>
<!-- Created with Inkscape (http://www.inkscape.org/) -->

<svg
   xmlns:dc="http://purl.org/dc/elements/1.1/"
   xmlns:cc="http://creativecommons.org/ns#"
   xmlns:rdf="http://www.w3.org/1999/02/22-rdf-syntax-ns#"
   xmlns:svg="http://www.w3.org/2000/svg"
   xmlns="http://www.w3.org/2000/svg"
   xmlns:sodipodi="http://sodipodi.sourceforge.net/DTD/sodipodi-0.dtd"
   xmlns:inkscape="http://www.inkscape.org/namespaces/inkscape"
   width="1920"
   height="1080"
   viewBox="0 0 1920 1080"
   id="svg2"
   version="1.1"
   inkscape:version="0.91 r13725"
   inkscape:export-filename="/home/fuego/text5824.png"
   inkscape:export-xdpi="90"
   inkscape:export-ydpi="90"
   sodipodi:docname="blog_page.svg">
  <defs
     id="defs4">
    <filter
       inkscape:collect="always"
       style="color-interpolation-filters:sRGB"
       id="filter6083"
       x="-0.011635345"
       width="1.0232707"
       y="-0.15043087"
       height="1.3008617">
      <feGaussianBlur
         inkscape:collect="always"
         stdDeviation="2.1086908"
         id="feGaussianBlur6085" />
    </filter>
    <filter
       inkscape:collect="always"
       style="color-interpolation-filters:sRGB"
       id="filter6221"
       x="-0.074568726"
       width="1.1491375"
       y="-0.067393892"
       height="1.1347878">
      <feGaussianBlur
         inkscape:collect="always"
         stdDeviation="6.3338128"
         id="feGaussianBlur6223" />
    </filter>
    <filter
       inkscape:collect="always"
       style="color-interpolation-filters:sRGB"
       id="filter5044"
       x="-0.070000149"
       width="1.1400003"
       y="-0.19284996"
       height="1.3856999">
      <feGaussianBlur
         inkscape:collect="always"
         stdDeviation="1.4643396"
         id="feGaussianBlur5046" />
    </filter>
    <filter
       inkscape:collect="always"
       style="color-interpolation-filters:sRGB"
       id="filter5048"
       x="-0.036131267"
       width="1.0722625"
       y="-0.20063975"
       height="1.4012794">
      <feGaussianBlur
         inkscape:collect="always"
         stdDeviation="1.4643396"
         id="feGaussianBlur5050" />
    </filter>
  </defs>
  <sodipodi:namedview
     id="base"
     pagecolor="#ffffff"
     bordercolor="#666666"
     borderopacity="1.0"
     inkscape:pageopacity="0.0"
     inkscape:pageshadow="2"
     inkscape:zoom="0.70710678"
     inkscape:cx="1299.8795"
     inkscape:cy="892.4155"
     inkscape:document-units="px"
     inkscape:current-layer="layer1"
     showgrid="false"
     units="px"
     showguides="true"
     inkscape:guide-bbox="true"
     inkscape:window-width="1868"
     inkscape:window-height="988"
     inkscape:window-x="25"
     inkscape:window-y="50"
     inkscape:window-maximized="1">
    <sodipodi:guide
       position="960,770"
       orientation="1,0"
       id="guide5828"
       inkscape:label=""
       inkscape:color="rgb(0,0,255)" />
  </sodipodi:namedview>
  <metadata
     id="metadata7">
    <rdf:RDF>
      <cc:Work
         rdf:about="">
        <dc:format>image/svg+xml</dc:format>
        <dc:type
           rdf:resource="http://purl.org/dc/dcmitype/StillImage" />
        <dc:title></dc:title>
      </cc:Work>
    </rdf:RDF>
  </metadata>
  <g
     inkscape:label="Layer 1"
     inkscape:groupmode="layer"
     id="layer1"
     transform="translate(0,27.637808)">
    <rect
       style="fill:#ffffff;fill-opacity:1;stroke:none;stroke-width:4.80000019;stroke-linecap:round;stroke-linejoin:miter;stroke-miterlimit:4;stroke-dasharray:none;stroke-opacity:0.48290621"
       id="rect5064"
       width="1920.2185"
       height="1078.4576"
       x="-0.17677669"
       y="-27.74342"
       ry="0" />
    <rect
       style="fill:#000000;fill-opacity:0.79059819;stroke:none;stroke-width:30.79999924;stroke-linecap:round;stroke-linejoin:miter;stroke-miterlimit:4;stroke-dasharray:none;stroke-opacity:1"
       id="rect4152"
       width="24.117579"
       height="4.3412189"
       x="185.99771"
       y="121.89142"
       ry="2.1706095" />
    <rect
       ry="2.1706095"
       y="112.22173"
       x="185.99771"
       height="4.3412189"
       width="20.218517"
       id="rect4164"
       style="fill:#000000;fill-opacity:0.79059819;stroke:none;stroke-width:30.79999924;stroke-linecap:round;stroke-linejoin:miter;stroke-miterlimit:4;stroke-dasharray:none;stroke-opacity:1" />
    <rect
       style="fill:#000000;fill-opacity:0.79059819;stroke:none;stroke-width:30.79999924;stroke-linecap:round;stroke-linejoin:miter;stroke-miterlimit:4;stroke-dasharray:none;stroke-opacity:1"
       id="rect4166"
       width="24.117579"
       height="4.3412189"
       x="185.99771"
       y="103.01995"
       ry="2.1706095" />
    <g
       id="g4994"
       transform="matrix(0.92118704,0,0,0.92118704,-154.64227,-36.302951)">
      <g
         style="fill:#000000;fill-opacity:0.31791908;filter:url(#filter6221)"
         id="g6087"
         transform="matrix(0.46880379,0,0,0.46880379,763.20825,-469.9544)">
        <g
           style="fill:#000000;fill-opacity:0.31791908"
           transform="matrix(0.93401151,0,0,0.93401151,120.10613,1028.9821)"
           id="g6089">
          <polygon
             style="fill:#000000;fill-opacity:0.31791908"
             transform="matrix(1.0706506,0,0,1.0706506,138.50917,164.06555)"
             class="st1"
             points="17.3,165.2 22.3,148.5 62,121.9 115.7,80.6 185.3,43.4 196.3,85 199.3,103.9 170.7,142.2 181.3,179.9 137.7,236.8 "
             id="polygon6091" />
          <g
             style="fill:#000000;fill-opacity:0.31791908"
             id="g6093"
             transform="translate(131.19619,130.06035)">
            <path
               style="fill:#000000;fill-opacity:0.31791908"
               id="path6095"
               inkscape:connector-curvature="0"
               inkscape:export-filename="/home/fuego/test.png"
               inkscape:export-xdpi="90"
               inkscape:export-ydpi="90"
               class="st13"
               d="m 221.2,114.5 c 3.8,-1.9 4.2,0.5 4.9,2.8 6.4,19.2 0.2,35.2 -12.1,49.8 -3.3,3.9 -6.4,8.2 -9.8,12 -7.5,8.5 -7.3,18 -3.8,28 2.6,7.3 7,13.6 10.6,20.2 1.9,3.4 1.8,3.9 -2,4.1 -3.5,0.2 -3.6,1.7 -2.6,4.5 4.8,14.2 2.4,27.9 -3.6,41.2 -7.6,5.6 -7.2,15.9 -13.1,22.7 -3.2,3.6 -6.2,6.4 -11.2,7.2 -9.2,1.4 -18.3,2.5 -27.5,0 -2.4,-0.6 -3.5,0.2 -4.1,2.5 -0.5,2 0.3,4.1 -0.9,6 -2.4,-0.2 -3.5,-2 -5,-3.4 C 121.9,295 102.5,278.2 79.4,266.7 64.3,259.2 48.3,254.4 31.2,254.3 c -5.6,0 -11.1,0.7 -16.2,3.4 -1.2,0.6 -2.5,0.9 -4.6,1.6 2.4,-15.2 11,-25.9 21,-36.3 -5.5,-2.5 -9.7,-7.5 -16.8,-4.5 5.6,-18.5 11.9,-35.1 29.3,-44.8 8.2,-4.6 16.9,-8.2 25.3,-12.5 1.3,-0.7 2.8,-1.1 3.6,-2.5 4.6,-7.4 11.3,-12.5 18.3,-17.2 9.6,-6.3 17.6,-14.6 26.9,-21.2 8.5,-6 17.6,-10.3 28.3,-10.2 3,0 5.4,-1.2 7.5,-3.4 9.4,-9.8 19.1,-19.5 30.4,-27.2 3.7,-2.5 7.4,-5 12.1,-5.4 9.2,-0.7 14.1,2.4 20.2,15.2 3.2,6.7 4.1,14 4.5,21.4 0.2,1 0.2,2 0.2,3.8 l 0,0 z m -4.6,7.3 c -0.1,-0.6 -0.2,-1 -0.2,-1.4 0.1,-1.4 0.3,-2.7 0.4,-4.1 0.4,-12 -1.1,-23.4 -8.8,-33.2 -3.7,-4.7 -8,-5.9 -13.8,-4 -4,1.3 -7.2,3.8 -10.5,6.2 -10.5,7.8 -19.7,16.9 -28.4,26.5 -1.2,1.3 -2.2,2.6 -4.4,2.5 -13.9,-0.8 -25.4,5 -35.7,13.8 -8.5,7.3 -17.2,14.2 -26.5,20.6 -3.2,2.2 -6.6,4.4 -8.5,7.6 -4.1,7 -10.7,10 -17.6,13 -3.4,1.5 -6.6,3.2 -10,4.7 -17.1,7.8 -27.4,21 -31.5,39.3 1.8,0.7 3.8,-0.5 5.8,-0.2 -0.3,0.8 -1,1.9 -0.9,2 3.6,3.4 8.6,4.1 13.1,6.3 -9.4,9 -18,18.1 -22.8,30.9 8.1,-2.3 15.7,-2.6 23.3,-1.6 21.2,2.6 40.6,10.1 58.3,22 12.5,8.4 24.2,17.7 35.7,27.4 3,2.5 5.9,5 9.3,7.9 0.3,-3 0.5,-5.2 0.7,-7.7 11.1,5 22.2,4.6 33.5,2.7 4.4,-0.7 7.1,-2.8 9.4,-6.3 5.3,-8.2 8.6,-17.3 10.9,-26.7 0.2,-0.8 0.4,-1.6 1.1,-2 0.9,0.5 0.9,2.1 2.6,2 2.3,-6.7 3.7,-13.6 3.4,-20.7 -0.3,-7.1 -2.3,-13.8 -6.2,-19.7 2.3,-1.8 5.1,-0.7 7.6,-2.2 -0.7,-1.3 -1.3,-2.5 -2,-3.6 -2.9,-5.1 -5.7,-10.2 -7.8,-15.7 -4.4,-11.7 -3.3,-22.4 5.1,-32.1 1.7,-2 3.3,-4 5,-6 5.8,-7.1 11.7,-14 15.2,-22.6 3.8,-9.2 4,-18.4 0.5,-27.9 -1.8,0.7 -3.5,1.5 -5.3,2.3 l 0,0 z" />
            <path
               style="fill:#000000;fill-opacity:0.31791908"
               id="path6097"
               inkscape:connector-curvature="0"
               inkscape:export-filename="/home/fuego/test.png"
               inkscape:export-xdpi="90"
               inkscape:export-ydpi="90"
               sodipodi:nodetypes="cccccccccscccccccccccccccccccccccccccccccccccccccccccccccccccscccccccccccccsccccccccccccccccccc"
               class="st9"
               d="m 216.6,121.8 c 1.8,-0.8 3.5,-1.6 5.4,-2.5 3.5,9.5 3.3,18.7 -0.5,27.9 -3.5,8.6 -9.4,15.6 -15.2,22.6 -1.6,2 -3.3,4 -5,6 -8.4,9.6 -9.5,20.4 -5.1,32.1 2.1,5.5 4.8,10.7 7.8,15.7 0.7,1.1 1.3,2.3 2,3.6 -2.4,1.5 -5.2,0.5 -7.6,2.2 3.9,5.9 5.9,12.6 6.2,19.7 0.3,7.1 -1,14 -3.4,20.7 -1.7,0.1 -1.7,-1.5 -2.6,-2 -0.7,0.5 -0.9,1.3 -1.1,2 -2.3,9.4 -5.6,18.5 -10.9,26.7 -2.3,3.5 -5,5.6 -9.4,6.3 -11.4,1.9 -22.5,2.2 -33.5,-2.7 -0.2,2.5 -0.4,4.7 -0.7,7.7 -3.4,-2.9 -6.3,-5.4 -9.3,-7.9 -11.4,-9.7 -23.2,-19 -35.7,-27.4 -17.7,-11.9 -37.1,-19.3 -58.3,-22 -7.6,-0.9 -15.2,-0.6 -23.3,1.6 4.9,-12.7 13.5,-21.9 22.8,-30.9 -4.6,-2.2 -9.5,-2.9 -13.1,-6.3 -0.2,-0.2 0.5,-1.3 0.9,-2 -2,-0.4 -4,0.9 -5.8,0.2 4.1,-18.2 14.4,-31.5 31.5,-39.3 3.3,-1.5 6.6,-3.3 10,-4.7 6.9,-3 13.6,-6 17.6,-13 1.9,-3.3 5.3,-5.5 8.5,-7.6 9.2,-6.3 18,-13.3 26.5,-20.6 10.3,-8.8 21.7,-14.5 35.7,-13.8 2.2,0.1 3.2,-1.2 4.4,-2.5 8.7,-9.6 18,-18.7 28.4,-26.5 3.3,-2.4 6.5,-5 10.5,-6.2 5.8,-1.9 10.1,-0.7 13.8,4 7.6,9.8 9.2,21.3 8.8,33.2 0,1.4 -0.3,2.7 -0.4,4.1 -0.1,0.6 0,1 0.1,1.6 l 0,0 z M 80.8,167.7 73,171.3 c -8.9,3.8 -17.8,7.5 -25.9,12.8 -8.4,5.5 -14.4,12.8 -17.4,22.7 3,0.6 5.9,1.3 8.8,1.9 -0.3,1.1 -2.2,0.6 -2.1,2.2 13.8,7.5 28.7,7.2 44.7,4.9 -3,2.8 -5.5,4 -8,5.2 -6.5,2.3 -13.2,3.3 -20.1,2.5 -1.1,-0.1 -2.4,-0.3 -3.2,0.2 -7,4.5 -11.7,10.9 -16,18.5 8.3,-0.4 15.7,0.5 23.1,2.2 23.4,5.4 43.2,17.6 61.4,32.8 6,5 11.7,10.4 17.7,15.7 0.9,-3 -0.7,-5.6 -0.3,-8.6 1.6,1.1 3,2 4.3,2.8 10.6,6.6 21.8,10.4 34.5,7.6 1.3,-0.3 2.7,-0.5 3.5,-1.8 3.4,-6.3 7.3,-12.5 9.2,-19.5 3.7,-7.9 4,-16.4 3.9,-25 2,0.7 2.1,3 4.1,3.3 -0.1,-5.2 -1.3,-10 -3,-14.7 -1.8,-4.8 -4.8,-9 -7.9,-13.6 l 9.7,0 c 2.5,0 2,-1.1 0.9,-2.4 -1.9,-3.9 -4.1,-7.7 -5.8,-11.7 -4.3,-10.5 -4.4,-20.9 1.4,-31 2.5,-4.3 5.6,-8 8.7,-11.8 5,-6 10.4,-11.5 14.3,-18.3 3.2,-5.5 4.9,-11.4 3.6,-19 -10.3,7.5 -21.2,12.1 -32.8,15.5 -0.6,-5.9 1.6,-11.2 3.7,-16.5 2.6,-4.3 5.7,-8.2 9.5,-11.6 3.7,-3.3 7.2,-6.8 8.9,-12.3 3,8.2 2.1,15.8 1.1,23.5 1.3,0 1.9,-0.7 2.1,-1.5 2.4,-9.1 2.7,-18.2 -0.9,-27.2 -0.3,-0.6 -0.5,-1.4 -1.6,-1.4 -2.6,0 -5.3,-0.3 -7.9,-0.4 -1.8,-0.1 -3.5,-0.1 -4.7,-2 2.6,-1.3 5.4,-2.4 5.7,-5.8 0.1,-0.8 0.1,-1.7 -1,-1.9 -0.8,-0.1 -2.2,0.1 -2.1,0.8 0.9,6.8 -4.9,4.6 -7.9,6 -2.1,1 -3.1,-0.2 -3.5,-2.5 -4.8,3.2 -9,6.4 -12.5,10.3 -5.1,4.3 -9.4,9.5 -14,14.5 1.4,1.1 2.6,2.1 4.3,3.5 -9.3,0.4 -18.1,-0.8 -26.5,2.3 -5.1,1 -9.3,3.8 -13.2,6.9 -10.5,8.2 -20.4,17.1 -31.6,24.5 -0.2,0.1 -0.2,0.5 -0.3,0.9 l 5.3,0 c -1.8,2.5 -3.8,4.1 -5.6,5.8 -1.9,1.8 -4.4,2.6 -6,4.7 l 0,0 c -1.7,0.8 -3.5,1.2 -4.8,2.4 l 0,0 z" />
            <path
               style="fill:#000000;fill-opacity:0.31791908"
               id="path6099"
               inkscape:connector-curvature="0"
               inkscape:export-filename="/home/fuego/test.png"
               inkscape:export-xdpi="90"
               inkscape:export-ydpi="90"
               class="st6"
               d="m 195,221.1 c 1.1,1.3 1.6,2.4 -0.9,2.4 -3,0 -6,0 -9.7,0 3.1,4.6 6.1,8.7 7.9,13.6 1.7,4.7 2.9,9.5 3,14.7 -2,-0.3 -2,-2.6 -4.1,-3.3 0.1,8.7 -0.2,17.2 -3.9,25 -1.9,0.7 -2.3,2.6 -3.4,3.9 -3.1,4 -6.7,7.2 -11.3,10.1 -0.4,-4.9 0.3,-9.3 -1.3,-13.5 -0.7,-1.8 -1.4,-3.6 -4.1,-2.4 -6.8,3 -13.9,2.2 -20.8,0.7 -17.4,-3.8 -32.4,-12.2 -45,-25 -3.6,-3.7 -6.2,-8 -9.6,-12.6 -0.6,2.5 -0.6,4.6 -2.1,6.6 -5.3,-6 -8.2,-12.9 -9.4,-20.6 -2.5,0.5 -4.7,2.2 -7.1,0.4 2.5,-1.2 5.1,-2.4 8,-5.2 -16.1,2.3 -30.9,2.5 -44.7,-4.9 -0.1,-1.5 1.8,-1.1 2.1,-2.2 3.6,-0.5 7.3,0.8 10.8,-0.8 5.9,0.8 11.9,1.5 17.9,0.6 0.1,2 -1.9,2.4 -1.7,4 6.1,0.1 11.8,-1.7 17.1,-4.8 1.1,4.3 1.8,8.3 4.3,12.3 1,-1.2 1.7,-2 2.5,-2.7 0.9,-0.8 1.5,-2 3.1,-2.1 5.8,15.4 16.5,26.7 30.7,34.7 14,8 29.1,12.1 45.3,13.5 -0.6,-2.6 -2.5,-4 -2.7,-6.3 4.9,1.6 6.7,4.4 10.9,16.8 12.9,-10.2 12,-41.7 2.3,-47.4 -0.2,7.7 -2.2,14.7 -7.9,20.3 -5.5,-4.9 -9.6,-10.5 -13.6,-16.7 -2.4,4.4 -1.2,8.5 -0.9,12.7 -7.6,0.4 -14.1,-2 -20.3,-5.6 -6.3,-3.6 -11.2,-8.8 -16.9,-14.8 0,2.5 0,3.8 0,5.2 0,1.4 0.6,2.9 -0.2,4.8 -13.2,-12.2 -21.2,-26.6 -22.7,-44.6 -2.6,0.9 -4.4,2.3 -6.1,3.8 -1.7,1.5 -3.3,3 -4.9,4.4 0,-6.2 2.2,-10.3 11.9,-21.9 -3.7,-0.7 -6.4,1.9 -9.7,2.4 1.3,-2.6 3.6,-4.4 5.4,-6.6 2.9,-3.6 5.7,-7.2 7,-12.2 -5.3,2.4 -9.4,6.2 -14.8,7.3 1.6,-2.1 4.1,-3 6,-4.7 1.8,-1.7 3.9,-3.3 5.6,-5.8 -2.1,0 -3.7,0 -5.3,0 0.2,-0.5 0.2,-0.8 0.3,-0.9 11.1,-7.4 21,-16.4 31.6,-24.5 4,-3.1 8.1,-5.9 13.2,-6.9 -0.8,0.7 -1.6,1.4 -2.5,2.1 -9.5,7.1 -12.9,16.9 -13.3,28.7 2.5,-1 4.3,-2.5 7,-2.4 0.2,0.6 0.5,1.2 0.6,1.9 0.8,8.2 5,14.8 9.9,21.1 1.6,2.1 3.1,2.4 5.4,0.9 5.6,-3.6 10.7,-7.9 15.2,-12.9 0.8,-0.9 1.3,-2.4 2.9,-2.5 1.1,3.7 -0.4,7.3 -0.3,10.9 3.5,0.6 6.3,-1.3 9.3,-1.8 -4.6,4 -9.8,6.9 -15.8,9.2 0.8,-2.7 2.3,-4.6 2,-7.7 -5.1,5.7 -10.6,10.2 -16.8,14.3 -2.3,-2.8 -4.4,-5.4 -7,-8.5 0,4.7 0,8.6 0,13.2 -7.9,-6.7 -12.7,-14 -12.2,-24.1 -2.3,0.4 -2.9,2.9 -5.1,2.9 -2,-9.1 -0.3,-17.8 1.9,-26.5 -8.2,8.3 -13.2,17.9 -14.1,29.9 2.4,-0.8 3.6,-2.8 6.2,-3 0,16.5 3.7,31.4 18.6,41.9 0.7,-4.5 -0.8,-8.6 0.1,-12.9 10.1,16.1 15.9,21.8 23.9,23.5 -2.2,-8.2 -1.2,-15.9 4,-23.1 2.9,3.1 5.1,6.5 9,8.8 0,-10.5 3.9,-19.2 8.9,-27.5 -1.1,10.6 0.5,20.6 6.1,29.8 3.6,5.6 7.4,10.9 14.3,12.6 l 0,0 z" />
            <path
               style="fill:#000000;fill-opacity:0.31791908"
               id="path6101"
               inkscape:connector-curvature="0"
               inkscape:export-filename="/home/fuego/test.png"
               inkscape:export-xdpi="90"
               inkscape:export-ydpi="90"
               class="st5"
               d="m 73.3,221 c 2.4,1.8 4.7,0 7.1,-0.4 1.1,7.7 4.1,14.6 9.4,20.6 1.5,-2 1.4,-4.1 2.1,-6.6 3.5,4.5 6,8.9 9.6,12.6 12.6,12.8 27.6,21.1 45,25 6.9,1.5 14,2.3 20.8,-0.7 2.7,-1.2 3.4,0.6 4.1,2.4 1.6,4.1 0.9,8.6 1.3,13.5 4.6,-2.9 8.2,-6.1 11.3,-10.1 1.1,-1.4 1.5,-3.3 3.4,-3.9 -1.9,7.1 -5.8,13.2 -9.2,19.5 -0.7,1.4 -2.1,1.6 -3.5,1.8 -12.7,2.8 -23.9,-1 -34.5,-7.6 -1.4,-0.9 -2.7,-1.8 -4.3,-2.8 -0.4,3 1.2,5.6 0.3,8.6 -6,-5.3 -11.7,-10.7 -17.7,-15.7 -18.2,-15.2 -38,-27.4 -61.4,-32.8 -7.3,-1.7 -14.7,-2.6 -23.1,-2.2 4.3,-7.6 9,-14 16,-18.5 0.8,-0.5 2.1,-0.3 3.2,-0.2 6.9,0.8 13.6,-0.2 20.1,-2.5 l 0,0 z" />
            <path
               style="fill:#000000;fill-opacity:0.31791908"
               id="path6103"
               inkscape:connector-curvature="0"
               inkscape:export-filename="/home/fuego/test.png"
               inkscape:export-xdpi="90"
               inkscape:export-ydpi="90"
               class="st9"
               d="m 49.3,208 c -3.4,-2.9 -7.9,-3 -12.2,-5 8.4,-9.7 18.5,-14.9 31.3,-14.7 0.3,2.1 -2.1,3.4 -1.8,6.2 7.9,-4.4 12.5,-11.9 19.5,-16.7 0.7,-0.2 1.5,-0.3 1.7,-1.2 l 0,0 c 3.2,-0.5 6,-3 9.7,-2.4 -9.7,11.5 -11.9,15.6 -11.9,21.9 1.5,-1.4 3.2,-2.9 4.9,-4.4 1.7,-1.5 3.5,-3 6.1,-3.8 1.4,18.1 9.5,32.4 22.7,44.6 0.8,-2 0.2,-3.4 0.2,-4.8 0,-1.3 0,-2.7 0,-5.2 5.7,6 10.7,11.2 16.9,14.8 6.2,3.6 12.7,6 20.3,5.6 -0.3,-4.3 -1.5,-8.3 0.9,-12.7 4,6.2 8.1,11.8 13.6,16.7 5.7,-5.6 7.7,-12.6 7.9,-20.3 9.6,5.6 10.6,37.2 -2.3,47.4 -4.2,-12.4 -6,-15.2 -10.9,-16.8 0.2,2.3 2.2,3.7 2.7,6.3 -16.2,-1.4 -31.3,-5.5 -45.3,-13.5 -14.2,-8.1 -24.9,-19.3 -30.7,-34.7 -1.6,0.1 -2.3,1.3 -3.1,2.1 -0.8,0.7 -1.4,1.6 -2.5,2.7 -2.4,-3.9 -3.2,-8 -4.3,-12.3 -5.4,3.1 -11,4.9 -17.1,4.8 -0.2,-1.6 1.8,-2 1.7,-4 -6.1,0.9 -12.1,0.1 -18,-0.6 l 0,0 z" />
            <path
               style="fill:#000000;fill-opacity:0.31791908"
               id="path6105"
               inkscape:connector-curvature="0"
               inkscape:export-filename="/home/fuego/test.png"
               inkscape:export-xdpi="90"
               inkscape:export-ydpi="90"
               class="st9"
               d="m 171.2,168.5 c 3.8,-2.1 6.9,-5.3 11,-8.2 -1.2,7.1 -5.1,12.5 -7.5,18.5 -5,8.4 -8.9,17.1 -8.9,27.5 -3.9,-2.2 -6.2,-5.6 -9,-8.8 -5.2,7.2 -6.3,14.8 -4,23.1 -8,-1.7 -13.7,-7.4 -23.9,-23.5 -0.9,4.3 0.6,8.3 -0.1,12.9 -14.9,-10.5 -18.6,-25.3 -18.6,-41.9 -2.5,0.3 -3.8,2.2 -6.2,3 0.9,-12 5.9,-21.6 14.1,-29.9 -2.2,8.8 -3.8,17.5 -1.9,26.5 2.2,-0.1 2.8,-2.6 5.1,-2.9 -0.6,10.1 4.3,17.5 12.2,24.1 0,-4.7 0,-8.5 0,-13.2 2.6,3.2 4.7,5.8 7,8.5 6.2,-4.1 11.7,-8.6 16.8,-14.3 0.4,3.1 -1.2,5 -2,7.7 6.1,-2.2 11.3,-5.2 15.9,-9.1 l 0,0 z" />
            <path
               style="fill:#000000;fill-opacity:0.31791908"
               id="path6107"
               inkscape:connector-curvature="0"
               inkscape:export-filename="/home/fuego/test.png"
               inkscape:export-xdpi="90"
               inkscape:export-ydpi="90"
               class="st9"
               d="m 148.2,128.3 c -7.8,2.8 -14.4,7.1 -19.1,14.2 -0.5,-5.6 3.4,-11.4 8.9,-14.4 1.2,-0.6 3.9,0.1 3.4,-2.9 -0.1,-0.4 1.2,-0.3 1.8,-0.1 1.7,0.8 3.5,1.5 5,3.2 l 0,0 z" />
          </g>
        </g>
      </g>
      <g
         transform="matrix(0.46880379,0,0,0.46880379,763.20825,-469.9544)"
         id="g5780">
        <g
           id="g4262"
           transform="matrix(0.93401151,0,0,0.93401151,120.10613,1028.9821)">
          <polygon
             id="polygon5723"
             points="17.3,165.2 22.3,148.5 62,121.9 115.7,80.6 185.3,43.4 196.3,85 199.3,103.9 170.7,142.2 181.3,179.9 137.7,236.8 "
             class="st1"
             transform="matrix(1.0706506,0,0,1.0706506,138.50917,164.06555)"
             style="fill:#ffffff" />
          <g
             transform="translate(131.19619,130.06035)"
             id="g5725">
            <path
               d="m 221.2,114.5 c 3.8,-1.9 4.2,0.5 4.9,2.8 6.4,19.2 0.2,35.2 -12.1,49.8 -3.3,3.9 -6.4,8.2 -9.8,12 -7.5,8.5 -7.3,18 -3.8,28 2.6,7.3 7,13.6 10.6,20.2 1.9,3.4 1.8,3.9 -2,4.1 -3.5,0.2 -3.6,1.7 -2.6,4.5 4.8,14.2 2.4,27.9 -3.6,41.2 -7.6,5.6 -7.2,15.9 -13.1,22.7 -3.2,3.6 -6.2,6.4 -11.2,7.2 -9.2,1.4 -18.3,2.5 -27.5,0 -2.4,-0.6 -3.5,0.2 -4.1,2.5 -0.5,2 0.3,4.1 -0.9,6 -2.4,-0.2 -3.5,-2 -5,-3.4 C 121.9,295 102.5,278.2 79.4,266.7 64.3,259.2 48.3,254.4 31.2,254.3 c -5.6,0 -11.1,0.7 -16.2,3.4 -1.2,0.6 -2.5,0.9 -4.6,1.6 2.4,-15.2 11,-25.9 21,-36.3 -5.5,-2.5 -9.7,-7.5 -16.8,-4.5 5.6,-18.5 11.9,-35.1 29.3,-44.8 8.2,-4.6 16.9,-8.2 25.3,-12.5 1.3,-0.7 2.8,-1.1 3.6,-2.5 4.6,-7.4 11.3,-12.5 18.3,-17.2 9.6,-6.3 17.6,-14.6 26.9,-21.2 8.5,-6 17.6,-10.3 28.3,-10.2 3,0 5.4,-1.2 7.5,-3.4 9.4,-9.8 19.1,-19.5 30.4,-27.2 3.7,-2.5 7.4,-5 12.1,-5.4 9.2,-0.7 14.1,2.4 20.2,15.2 3.2,6.7 4.1,14 4.5,21.4 0.2,1 0.2,2 0.2,3.8 l 0,0 z m -4.6,7.3 c -0.1,-0.6 -0.2,-1 -0.2,-1.4 0.1,-1.4 0.3,-2.7 0.4,-4.1 0.4,-12 -1.1,-23.4 -8.8,-33.2 -3.7,-4.7 -8,-5.9 -13.8,-4 -4,1.3 -7.2,3.8 -10.5,6.2 -10.5,7.8 -19.7,16.9 -28.4,26.5 -1.2,1.3 -2.2,2.6 -4.4,2.5 -13.9,-0.8 -25.4,5 -35.7,13.8 -8.5,7.3 -17.2,14.2 -26.5,20.6 -3.2,2.2 -6.6,4.4 -8.5,7.6 -4.1,7 -10.7,10 -17.6,13 -3.4,1.5 -6.6,3.2 -10,4.7 -17.1,7.8 -27.4,21 -31.5,39.3 1.8,0.7 3.8,-0.5 5.8,-0.2 -0.3,0.8 -1,1.9 -0.9,2 3.6,3.4 8.6,4.1 13.1,6.3 -9.4,9 -18,18.1 -22.8,30.9 8.1,-2.3 15.7,-2.6 23.3,-1.6 21.2,2.6 40.6,10.1 58.3,22 12.5,8.4 24.2,17.7 35.7,27.4 3,2.5 5.9,5 9.3,7.9 0.3,-3 0.5,-5.2 0.7,-7.7 11.1,5 22.2,4.6 33.5,2.7 4.4,-0.7 7.1,-2.8 9.4,-6.3 5.3,-8.2 8.6,-17.3 10.9,-26.7 0.2,-0.8 0.4,-1.6 1.1,-2 0.9,0.5 0.9,2.1 2.6,2 2.3,-6.7 3.7,-13.6 3.4,-20.7 -0.3,-7.1 -2.3,-13.8 -6.2,-19.7 2.3,-1.8 5.1,-0.7 7.6,-2.2 -0.7,-1.3 -1.3,-2.5 -2,-3.6 -2.9,-5.1 -5.7,-10.2 -7.8,-15.7 -4.4,-11.7 -3.3,-22.4 5.1,-32.1 1.7,-2 3.3,-4 5,-6 5.8,-7.1 11.7,-14 15.2,-22.6 3.8,-9.2 4,-18.4 0.5,-27.9 -1.8,0.7 -3.5,1.5 -5.3,2.3 l 0,0 z"
               class="st13"
               inkscape:export-ydpi="90"
               inkscape:export-xdpi="90"
               inkscape:export-filename="/home/fuego/test.png"
               inkscape:connector-curvature="0"
               id="path5727"
               style="fill:#bfbdbc" />
            <path
               d="m 216.6,121.8 c 1.8,-0.8 3.5,-1.6 5.4,-2.5 3.5,9.5 3.3,18.7 -0.5,27.9 -3.5,8.6 -9.4,15.6 -15.2,22.6 -1.6,2 -3.3,4 -5,6 -8.4,9.6 -9.5,20.4 -5.1,32.1 2.1,5.5 4.8,10.7 7.8,15.7 0.7,1.1 1.3,2.3 2,3.6 -2.4,1.5 -5.2,0.5 -7.6,2.2 3.9,5.9 5.9,12.6 6.2,19.7 0.3,7.1 -1,14 -3.4,20.7 -1.7,0.1 -1.7,-1.5 -2.6,-2 -0.7,0.5 -0.9,1.3 -1.1,2 -2.3,9.4 -5.6,18.5 -10.9,26.7 -2.3,3.5 -5,5.6 -9.4,6.3 -11.4,1.9 -22.5,2.2 -33.5,-2.7 -0.2,2.5 -0.4,4.7 -0.7,7.7 -3.4,-2.9 -6.3,-5.4 -9.3,-7.9 -11.4,-9.7 -23.2,-19 -35.7,-27.4 -17.7,-11.9 -37.1,-19.3 -58.3,-22 -7.6,-0.9 -15.2,-0.6 -23.3,1.6 4.9,-12.7 13.5,-21.9 22.8,-30.9 -4.6,-2.2 -9.5,-2.9 -13.1,-6.3 -0.2,-0.2 0.5,-1.3 0.9,-2 -2,-0.4 -4,0.9 -5.8,0.2 4.1,-18.2 14.4,-31.5 31.5,-39.3 3.3,-1.5 6.6,-3.3 10,-4.7 6.9,-3 13.6,-6 17.6,-13 1.9,-3.3 5.3,-5.5 8.5,-7.6 9.2,-6.3 18,-13.3 26.5,-20.6 10.3,-8.8 21.7,-14.5 35.7,-13.8 2.2,0.1 3.2,-1.2 4.4,-2.5 8.7,-9.6 18,-18.7 28.4,-26.5 3.3,-2.4 6.5,-5 10.5,-6.2 5.8,-1.9 10.1,-0.7 13.8,4 7.6,9.8 9.2,21.3 8.8,33.2 0,1.4 -0.3,2.7 -0.4,4.1 -0.1,0.6 0,1 0.1,1.6 l 0,0 z M 80.8,167.7 73,171.3 c -8.9,3.8 -17.8,7.5 -25.9,12.8 -8.4,5.5 -14.4,12.8 -17.4,22.7 3,0.6 5.9,1.3 8.8,1.9 -0.3,1.1 -2.2,0.6 -2.1,2.2 13.8,7.5 28.7,7.2 44.7,4.9 -3,2.8 -5.5,4 -8,5.2 -6.5,2.3 -13.2,3.3 -20.1,2.5 -1.1,-0.1 -2.4,-0.3 -3.2,0.2 -7,4.5 -11.7,10.9 -16,18.5 8.3,-0.4 15.7,0.5 23.1,2.2 23.4,5.4 43.2,17.6 61.4,32.8 6,5 11.7,10.4 17.7,15.7 0.9,-3 -0.7,-5.6 -0.3,-8.6 1.6,1.1 3,2 4.3,2.8 10.6,6.6 21.8,10.4 34.5,7.6 1.3,-0.3 2.7,-0.5 3.5,-1.8 3.4,-6.3 7.3,-12.5 9.2,-19.5 3.7,-7.9 4,-16.4 3.9,-25 2,0.7 2.1,3 4.1,3.3 -0.1,-5.2 -1.3,-10 -3,-14.7 -1.8,-4.8 -4.8,-9 -7.9,-13.6 l 9.7,0 c 2.5,0 2,-1.1 0.9,-2.4 -1.9,-3.9 -4.1,-7.7 -5.8,-11.7 -4.3,-10.5 -4.4,-20.9 1.4,-31 2.5,-4.3 5.6,-8 8.7,-11.8 5,-6 10.4,-11.5 14.3,-18.3 3.2,-5.5 4.9,-11.4 3.6,-19 -10.3,7.5 -21.2,12.1 -32.8,15.5 -0.6,-5.9 1.6,-11.2 3.7,-16.5 2.6,-4.3 5.7,-8.2 9.5,-11.6 3.7,-3.3 7.2,-6.8 8.9,-12.3 3,8.2 2.1,15.8 1.1,23.5 1.3,0 1.9,-0.7 2.1,-1.5 2.4,-9.1 2.7,-18.2 -0.9,-27.2 -0.3,-0.6 -0.5,-1.4 -1.6,-1.4 -2.6,0 -5.3,-0.3 -7.9,-0.4 -1.8,-0.1 -3.5,-0.1 -4.7,-2 2.6,-1.3 5.4,-2.4 5.7,-5.8 0.1,-0.8 0.1,-1.7 -1,-1.9 -0.8,-0.1 -2.2,0.1 -2.1,0.8 0.9,6.8 -4.9,4.6 -7.9,6 -2.1,1 -3.1,-0.2 -3.5,-2.5 -4.8,3.2 -9,6.4 -12.5,10.3 -5.1,4.3 -9.4,9.5 -14,14.5 1.4,1.1 2.6,2.1 4.3,3.5 -9.3,0.4 -18.1,-0.8 -26.5,2.3 -5.1,1 -9.3,3.8 -13.2,6.9 -10.5,8.2 -20.4,17.1 -31.6,24.5 -0.2,0.1 -0.2,0.5 -0.3,0.9 l 5.3,0 c -1.8,2.5 -3.8,4.1 -5.6,5.8 -1.9,1.8 -4.4,2.6 -6,4.7 l 0,0 c -1.7,0.8 -3.5,1.2 -4.8,2.4 l 0,0 z"
               class="st9"
               sodipodi:nodetypes="cccccccccscccccccccccccccccccccccccccccccccccccccccccccccccccscccccccccccccsccccccccccccccccccc"
               inkscape:export-ydpi="90"
               inkscape:export-xdpi="90"
               inkscape:export-filename="/home/fuego/test.png"
               inkscape:connector-curvature="0"
               id="path5729"
               style="fill:#181d2a" />
            <path
               d="m 195,221.1 c 1.1,1.3 1.6,2.4 -0.9,2.4 -3,0 -6,0 -9.7,0 3.1,4.6 6.1,8.7 7.9,13.6 1.7,4.7 2.9,9.5 3,14.7 -2,-0.3 -2,-2.6 -4.1,-3.3 0.1,8.7 -0.2,17.2 -3.9,25 -1.9,0.7 -2.3,2.6 -3.4,3.9 -3.1,4 -6.7,7.2 -11.3,10.1 -0.4,-4.9 0.3,-9.3 -1.3,-13.5 -0.7,-1.8 -1.4,-3.6 -4.1,-2.4 -6.8,3 -13.9,2.2 -20.8,0.7 -17.4,-3.8 -32.4,-12.2 -45,-25 -3.6,-3.7 -6.2,-8 -9.6,-12.6 -0.6,2.5 -0.6,4.6 -2.1,6.6 -5.3,-6 -8.2,-12.9 -9.4,-20.6 -2.5,0.5 -4.7,2.2 -7.1,0.4 2.5,-1.2 5.1,-2.4 8,-5.2 -16.1,2.3 -30.9,2.5 -44.7,-4.9 -0.1,-1.5 1.8,-1.1 2.1,-2.2 3.6,-0.5 7.3,0.8 10.8,-0.8 5.9,0.8 11.9,1.5 17.9,0.6 0.1,2 -1.9,2.4 -1.7,4 6.1,0.1 11.8,-1.7 17.1,-4.8 1.1,4.3 1.8,8.3 4.3,12.3 1,-1.2 1.7,-2 2.5,-2.7 0.9,-0.8 1.5,-2 3.1,-2.1 5.8,15.4 16.5,26.7 30.7,34.7 14,8 29.1,12.1 45.3,13.5 -0.6,-2.6 -2.5,-4 -2.7,-6.3 4.9,1.6 6.7,4.4 10.9,16.8 12.9,-10.2 12,-41.7 2.3,-47.4 -0.2,7.7 -2.2,14.7 -7.9,20.3 -5.5,-4.9 -9.6,-10.5 -13.6,-16.7 -2.4,4.4 -1.2,8.5 -0.9,12.7 -7.6,0.4 -14.1,-2 -20.3,-5.6 -6.3,-3.6 -11.2,-8.8 -16.9,-14.8 0,2.5 0,3.8 0,5.2 0,1.4 0.6,2.9 -0.2,4.8 -13.2,-12.2 -21.2,-26.6 -22.7,-44.6 -2.6,0.9 -4.4,2.3 -6.1,3.8 -1.7,1.5 -3.3,3 -4.9,4.4 0,-6.2 2.2,-10.3 11.9,-21.9 -3.7,-0.7 -6.4,1.9 -9.7,2.4 1.3,-2.6 3.6,-4.4 5.4,-6.6 2.9,-3.6 5.7,-7.2 7,-12.2 -5.3,2.4 -9.4,6.2 -14.8,7.3 1.6,-2.1 4.1,-3 6,-4.7 1.8,-1.7 3.9,-3.3 5.6,-5.8 -2.1,0 -3.7,0 -5.3,0 0.2,-0.5 0.2,-0.8 0.3,-0.9 11.1,-7.4 21,-16.4 31.6,-24.5 4,-3.1 8.1,-5.9 13.2,-6.9 -0.8,0.7 -1.6,1.4 -2.5,2.1 -9.5,7.1 -12.9,16.9 -13.3,28.7 2.5,-1 4.3,-2.5 7,-2.4 0.2,0.6 0.5,1.2 0.6,1.9 0.8,8.2 5,14.8 9.9,21.1 1.6,2.1 3.1,2.4 5.4,0.9 5.6,-3.6 10.7,-7.9 15.2,-12.9 0.8,-0.9 1.3,-2.4 2.9,-2.5 1.1,3.7 -0.4,7.3 -0.3,10.9 3.5,0.6 6.3,-1.3 9.3,-1.8 -4.6,4 -9.8,6.9 -15.8,9.2 0.8,-2.7 2.3,-4.6 2,-7.7 -5.1,5.7 -10.6,10.2 -16.8,14.3 -2.3,-2.8 -4.4,-5.4 -7,-8.5 0,4.7 0,8.6 0,13.2 -7.9,-6.7 -12.7,-14 -12.2,-24.1 -2.3,0.4 -2.9,2.9 -5.1,2.9 -2,-9.1 -0.3,-17.8 1.9,-26.5 -8.2,8.3 -13.2,17.9 -14.1,29.9 2.4,-0.8 3.6,-2.8 6.2,-3 0,16.5 3.7,31.4 18.6,41.9 0.7,-4.5 -0.8,-8.6 0.1,-12.9 10.1,16.1 15.9,21.8 23.9,23.5 -2.2,-8.2 -1.2,-15.9 4,-23.1 2.9,3.1 5.1,6.5 9,8.8 0,-10.5 3.9,-19.2 8.9,-27.5 -1.1,10.6 0.5,20.6 6.1,29.8 3.6,5.6 7.4,10.9 14.3,12.6 l 0,0 z"
               class="st6"
               inkscape:export-ydpi="90"
               inkscape:export-xdpi="90"
               inkscape:export-filename="/home/fuego/test.png"
               inkscape:connector-curvature="0"
               id="path5731"
               style="fill:#3e73c2" />
            <path
               d="m 73.3,221 c 2.4,1.8 4.7,0 7.1,-0.4 1.1,7.7 4.1,14.6 9.4,20.6 1.5,-2 1.4,-4.1 2.1,-6.6 3.5,4.5 6,8.9 9.6,12.6 12.6,12.8 27.6,21.1 45,25 6.9,1.5 14,2.3 20.8,-0.7 2.7,-1.2 3.4,0.6 4.1,2.4 1.6,4.1 0.9,8.6 1.3,13.5 4.6,-2.9 8.2,-6.1 11.3,-10.1 1.1,-1.4 1.5,-3.3 3.4,-3.9 -1.9,7.1 -5.8,13.2 -9.2,19.5 -0.7,1.4 -2.1,1.6 -3.5,1.8 -12.7,2.8 -23.9,-1 -34.5,-7.6 -1.4,-0.9 -2.7,-1.8 -4.3,-2.8 -0.4,3 1.2,5.6 0.3,8.6 -6,-5.3 -11.7,-10.7 -17.7,-15.7 -18.2,-15.2 -38,-27.4 -61.4,-32.8 -7.3,-1.7 -14.7,-2.6 -23.1,-2.2 4.3,-7.6 9,-14 16,-18.5 0.8,-0.5 2.1,-0.3 3.2,-0.2 6.9,0.8 13.6,-0.2 20.1,-2.5 l 0,0 z"
               class="st5"
               inkscape:export-ydpi="90"
               inkscape:export-xdpi="90"
               inkscape:export-filename="/home/fuego/test.png"
               inkscape:connector-curvature="0"
               id="path5733"
               style="fill:#1a3152" />
            <path
               d="m 49.3,208 c -3.4,-2.9 -7.9,-3 -12.2,-5 8.4,-9.7 18.5,-14.9 31.3,-14.7 0.3,2.1 -2.1,3.4 -1.8,6.2 7.9,-4.4 12.5,-11.9 19.5,-16.7 0.7,-0.2 1.5,-0.3 1.7,-1.2 l 0,0 c 3.2,-0.5 6,-3 9.7,-2.4 -9.7,11.5 -11.9,15.6 -11.9,21.9 1.5,-1.4 3.2,-2.9 4.9,-4.4 1.7,-1.5 3.5,-3 6.1,-3.8 1.4,18.1 9.5,32.4 22.7,44.6 0.8,-2 0.2,-3.4 0.2,-4.8 0,-1.3 0,-2.7 0,-5.2 5.7,6 10.7,11.2 16.9,14.8 6.2,3.6 12.7,6 20.3,5.6 -0.3,-4.3 -1.5,-8.3 0.9,-12.7 4,6.2 8.1,11.8 13.6,16.7 5.7,-5.6 7.7,-12.6 7.9,-20.3 9.6,5.6 10.6,37.2 -2.3,47.4 -4.2,-12.4 -6,-15.2 -10.9,-16.8 0.2,2.3 2.2,3.7 2.7,6.3 -16.2,-1.4 -31.3,-5.5 -45.3,-13.5 -14.2,-8.1 -24.9,-19.3 -30.7,-34.7 -1.6,0.1 -2.3,1.3 -3.1,2.1 -0.8,0.7 -1.4,1.6 -2.5,2.7 -2.4,-3.9 -3.2,-8 -4.3,-12.3 -5.4,3.1 -11,4.9 -17.1,4.8 -0.2,-1.6 1.8,-2 1.7,-4 -6.1,0.9 -12.1,0.1 -18,-0.6 l 0,0 z"
               class="st9"
               inkscape:export-ydpi="90"
               inkscape:export-xdpi="90"
               inkscape:export-filename="/home/fuego/test.png"
               inkscape:connector-curvature="0"
               id="path5735"
               style="fill:#181d2a" />
            <path
               d="m 171.2,168.5 c 3.8,-2.1 6.9,-5.3 11,-8.2 -1.2,7.1 -5.1,12.5 -7.5,18.5 -5,8.4 -8.9,17.1 -8.9,27.5 -3.9,-2.2 -6.2,-5.6 -9,-8.8 -5.2,7.2 -6.3,14.8 -4,23.1 -8,-1.7 -13.7,-7.4 -23.9,-23.5 -0.9,4.3 0.6,8.3 -0.1,12.9 -14.9,-10.5 -18.6,-25.3 -18.6,-41.9 -2.5,0.3 -3.8,2.2 -6.2,3 0.9,-12 5.9,-21.6 14.1,-29.9 -2.2,8.8 -3.8,17.5 -1.9,26.5 2.2,-0.1 2.8,-2.6 5.1,-2.9 -0.6,10.1 4.3,17.5 12.2,24.1 0,-4.7 0,-8.5 0,-13.2 2.6,3.2 4.7,5.8 7,8.5 6.2,-4.1 11.7,-8.6 16.8,-14.3 0.4,3.1 -1.2,5 -2,7.7 6.1,-2.2 11.3,-5.2 15.9,-9.1 l 0,0 z"
               class="st9"
               inkscape:export-ydpi="90"
               inkscape:export-xdpi="90"
               inkscape:export-filename="/home/fuego/test.png"
               inkscape:connector-curvature="0"
               id="path5737"
               style="fill:#181d2a" />
            <path
               d="m 148.2,128.3 c -7.8,2.8 -14.4,7.1 -19.1,14.2 -0.5,-5.6 3.4,-11.4 8.9,-14.4 1.2,-0.6 3.9,0.1 3.4,-2.9 -0.1,-0.4 1.2,-0.3 1.8,-0.1 1.7,0.8 3.5,1.5 5,3.2 l 0,0 z"
               class="st9"
               inkscape:export-ydpi="90"
               inkscape:export-xdpi="90"
               inkscape:export-filename="/home/fuego/test.png"
               inkscape:connector-curvature="0"
               id="path5739"
               style="fill:#181d2a" />
          </g>
        </g>
      </g>
    </g>
    <g
       id="g4988"
       transform="matrix(1.0934844,0,0,1.0934844,-22.228679,-141.55051)">
      <text
         sodipodi:linespacing="125%"
         id="text6039"
         y="246.75439"
         x="736.96289"
         style="font-style:normal;font-weight:normal;font-size:3.89379859px;line-height:125%;font-family:sans-serif;letter-spacing:0px;word-spacing:0px;fill:#000000;fill-opacity:0.30635837;stroke:none;stroke-width:1px;stroke-linecap:butt;stroke-linejoin:miter;stroke-opacity:1;filter:url(#filter6083)"
         xml:space="preserve"><tspan
           style="font-style:normal;font-variant:normal;font-weight:200;font-stretch:normal;font-size:46.72557831px;font-family:Raleway;-inkscape-font-specification:'Raleway Ultra-Light';letter-spacing:25.59324455px;fill:#000000;fill-opacity:0.30635837"
           y="246.75439"
           x="736.96289"
           id="tspan6041"
           sodipodi:role="line">KODEWOLF</tspan></text>
      <text
         xml:space="preserve"
         style="font-style:normal;font-weight:normal;font-size:3.89379859px;line-height:125%;font-family:sans-serif;letter-spacing:0px;word-spacing:0px;fill:#181d2a;fill-opacity:1;stroke:none;stroke-width:1px;stroke-linecap:butt;stroke-linejoin:miter;stroke-opacity:1"
         x="736.96289"
         y="244.75439"
         id="text5824"
         sodipodi:linespacing="125%"><tspan
           sodipodi:role="line"
           id="tspan5826"
           x="736.96289"
           y="244.75439"
           style="font-style:normal;font-variant:normal;font-weight:200;font-stretch:normal;font-size:46.72557831px;font-family:Raleway;-inkscape-font-specification:'Raleway Ultra-Light';letter-spacing:25.59324455px;fill:#181d2a;fill-opacity:1">KODEWOLF</tspan></text>
    </g>
    <g
       id="g5052"
       transform="translate(-134,26)">
      <text
         sodipodi:linespacing="125%"
         id="text4168"
         y="93.910278"
         x="1678.4147"
         style="font-style:normal;font-weight:normal;font-size:19.12232018px;line-height:125%;font-family:sans-serif;letter-spacing:3.82999849px;word-spacing:0px;fill:#000000;fill-opacity:0.79215686;stroke:none;stroke-width:1px;stroke-linecap:butt;stroke-linejoin:miter;stroke-opacity:1"
         xml:space="preserve"><tspan
           style="font-style:normal;font-variant:normal;font-weight:500;font-stretch:normal;font-family:Raleway;-inkscape-font-specification:'Raleway Medium';letter-spacing:3.82999849px;fill:#000000;fill-opacity:0.79215686"
           y="93.910278"
           x="1678.4147"
           id="tspan4170"
           sodipodi:role="line">Blog</tspan></text>
      <text
         xml:space="preserve"
         style="font-style:normal;font-weight:normal;font-size:19.12232018px;line-height:125%;font-family:sans-serif;letter-spacing:3.82999849px;word-spacing:0px;fill:#000000;fill-opacity:0.32644629;stroke:none;stroke-width:1px;stroke-linecap:butt;stroke-linejoin:miter;stroke-opacity:1;filter:url(#filter5044)"
         x="1678.4147"
         y="93.910278"
         id="text5020"
         sodipodi:linespacing="125%"><tspan
           sodipodi:role="line"
           id="tspan5022"
           x="1678.4147"
           y="93.910278"
           style="font-style:normal;font-variant:normal;font-weight:500;font-stretch:normal;font-family:Raleway;-inkscape-font-specification:'Raleway Medium';letter-spacing:3.82999849px;fill:#000000;fill-opacity:0.32644629">Blog</tspan></text>
      <text
         xml:space="preserve"
         style="font-style:normal;font-weight:normal;font-size:19.12232018px;line-height:125%;font-family:sans-serif;letter-spacing:3.82999849px;word-spacing:0px;fill:#000000;fill-opacity:0.79215686;stroke:none;stroke-width:1px;stroke-linecap:butt;stroke-linejoin:miter;stroke-opacity:1"
         x="1764.901"
         y="94.206146"
         id="text4172"
         sodipodi:linespacing="125%"><tspan
           sodipodi:role="line"
           id="tspan4174"
           x="1764.901"
           y="94.206146"
           style="font-style:normal;font-variant:normal;font-weight:500;font-stretch:normal;font-family:Raleway;-inkscape-font-specification:'Raleway Medium';letter-spacing:3.82999849px;fill:#000000;fill-opacity:0.79215686">Projects</tspan></text>
      <text
         sodipodi:linespacing="125%"
         id="text5024"
         y="94.206146"
         x="1764.901"
         style="font-style:normal;font-weight:normal;font-size:19.12232018px;line-height:125%;font-family:sans-serif;letter-spacing:3.82999849px;word-spacing:0px;fill:#000000;fill-opacity:0.34297521;stroke:none;stroke-width:1px;stroke-linecap:butt;stroke-linejoin:miter;stroke-opacity:1;filter:url(#filter5048)"
         xml:space="preserve"><tspan
           style="font-style:normal;font-variant:normal;font-weight:500;font-stretch:normal;font-family:Raleway;-inkscape-font-specification:'Raleway Medium';letter-spacing:3.82999849px;fill:#000000;fill-opacity:0.34297521"
           y="94.206146"
           x="1764.901"
           id="tspan5026"
           sodipodi:role="line">Projects</tspan></text>
    </g>
  </g>
</svg>
